<mxfile host="Electron" modified="2023-12-31T04:46:50.750Z" agent="Mozilla/5.0 (Windows NT 10.0; Win64; x64) AppleWebKit/537.36 (KHTML, like Gecko) draw.io/22.1.16 Chrome/120.0.6099.109 Electron/28.1.0 Safari/537.36" etag="qIqJ9-crTRLib1_Un-Cz" version="22.1.16" type="device">
  <diagram name="第 1 页" id="MHSJaDeuceE217Mt4Ifr">
    <mxGraphModel dx="914" dy="1414" grid="1" gridSize="10" guides="1" tooltips="1" connect="1" arrows="1" fold="1" page="1" pageScale="1" pageWidth="827" pageHeight="1169" math="0" shadow="0">
      <root>
        <mxCell id="0" />
        <mxCell id="1" parent="0" />
        <mxCell id="eBf-w2LDvlw9F7p6FqIL-1" value="Python基本数据类型" style="text;html=1;strokeColor=none;fillColor=none;align=center;verticalAlign=middle;whiteSpace=wrap;rounded=0;fontStyle=1;fontSize=21;spacingLeft=0;" vertex="1" parent="1">
          <mxGeometry x="284" y="30" width="260" height="60" as="geometry" />
        </mxCell>
        <mxCell id="eBf-w2LDvlw9F7p6FqIL-3" value="&lt;b&gt;&lt;font style=&quot;font-size: 15px;&quot;&gt;浮点数&lt;/font&gt;&lt;/b&gt;" style="rounded=1;whiteSpace=wrap;html=1;fillColor=#f8cecc;strokeColor=#b85450;" vertex="1" parent="1">
          <mxGeometry x="354" y="1020" width="120" height="60" as="geometry" />
        </mxCell>
        <mxCell id="eBf-w2LDvlw9F7p6FqIL-18" value="" style="group" vertex="1" connectable="0" parent="1">
          <mxGeometry x="151" y="130" width="525" height="150" as="geometry" />
        </mxCell>
        <mxCell id="eBf-w2LDvlw9F7p6FqIL-2" value="&lt;font size=&quot;1&quot; style=&quot;&quot;&gt;&lt;b style=&quot;font-size: 15px;&quot;&gt;整数&lt;/b&gt;&lt;/font&gt;" style="rounded=1;whiteSpace=wrap;html=1;fillColor=#fff2cc;strokeColor=#d6b656;" vertex="1" parent="eBf-w2LDvlw9F7p6FqIL-18">
          <mxGeometry x="197" width="120" height="60" as="geometry" />
        </mxCell>
        <mxCell id="eBf-w2LDvlw9F7p6FqIL-13" value="" style="group" vertex="1" connectable="0" parent="eBf-w2LDvlw9F7p6FqIL-18">
          <mxGeometry y="100" width="525" height="50" as="geometry" />
        </mxCell>
        <mxCell id="eBf-w2LDvlw9F7p6FqIL-6" value="十进制&lt;br&gt;10" style="rounded=1;whiteSpace=wrap;html=1;fillColor=#fff2cc;strokeColor=#d6b656;" vertex="1" parent="eBf-w2LDvlw9F7p6FqIL-13">
          <mxGeometry width="94.8529411764706" height="50" as="geometry" />
        </mxCell>
        <mxCell id="eBf-w2LDvlw9F7p6FqIL-10" value="二进制&lt;br&gt;0b1010" style="rounded=1;whiteSpace=wrap;html=1;fillColor=#fff2cc;strokeColor=#d6b656;" vertex="1" parent="eBf-w2LDvlw9F7p6FqIL-13">
          <mxGeometry x="143.38235294117646" width="94.8529411764706" height="50" as="geometry" />
        </mxCell>
        <mxCell id="eBf-w2LDvlw9F7p6FqIL-11" value="八进制&lt;br style=&quot;border-color: var(--border-color);&quot;&gt;0o12" style="rounded=1;whiteSpace=wrap;html=1;fillColor=#fff2cc;strokeColor=#d6b656;" vertex="1" parent="eBf-w2LDvlw9F7p6FqIL-13">
          <mxGeometry x="286.7647058823529" width="94.8529411764706" height="50" as="geometry" />
        </mxCell>
        <mxCell id="eBf-w2LDvlw9F7p6FqIL-12" value="十六进制&lt;br&gt;0x10" style="rounded=1;whiteSpace=wrap;html=1;fillColor=#fff2cc;strokeColor=#d6b656;" vertex="1" parent="eBf-w2LDvlw9F7p6FqIL-13">
          <mxGeometry x="430.1470588235294" width="94.8529411764706" height="50" as="geometry" />
        </mxCell>
        <mxCell id="eBf-w2LDvlw9F7p6FqIL-14" style="edgeStyle=orthogonalEdgeStyle;rounded=0;orthogonalLoop=1;jettySize=auto;html=1;exitX=0.5;exitY=1;exitDx=0;exitDy=0;entryX=0.5;entryY=0;entryDx=0;entryDy=0;" edge="1" parent="eBf-w2LDvlw9F7p6FqIL-18" source="eBf-w2LDvlw9F7p6FqIL-2" target="eBf-w2LDvlw9F7p6FqIL-6">
          <mxGeometry relative="1" as="geometry" />
        </mxCell>
        <mxCell id="eBf-w2LDvlw9F7p6FqIL-15" style="edgeStyle=orthogonalEdgeStyle;rounded=0;orthogonalLoop=1;jettySize=auto;html=1;exitX=0.5;exitY=1;exitDx=0;exitDy=0;entryX=0.5;entryY=0;entryDx=0;entryDy=0;" edge="1" parent="eBf-w2LDvlw9F7p6FqIL-18" source="eBf-w2LDvlw9F7p6FqIL-2" target="eBf-w2LDvlw9F7p6FqIL-10">
          <mxGeometry relative="1" as="geometry" />
        </mxCell>
        <mxCell id="eBf-w2LDvlw9F7p6FqIL-16" style="edgeStyle=orthogonalEdgeStyle;rounded=0;orthogonalLoop=1;jettySize=auto;html=1;exitX=0.5;exitY=1;exitDx=0;exitDy=0;entryX=0.5;entryY=0;entryDx=0;entryDy=0;" edge="1" parent="eBf-w2LDvlw9F7p6FqIL-18" source="eBf-w2LDvlw9F7p6FqIL-2" target="eBf-w2LDvlw9F7p6FqIL-11">
          <mxGeometry relative="1" as="geometry" />
        </mxCell>
        <mxCell id="eBf-w2LDvlw9F7p6FqIL-17" style="edgeStyle=orthogonalEdgeStyle;rounded=0;orthogonalLoop=1;jettySize=auto;html=1;exitX=0.5;exitY=1;exitDx=0;exitDy=0;entryX=0.5;entryY=0;entryDx=0;entryDy=0;" edge="1" parent="eBf-w2LDvlw9F7p6FqIL-18" source="eBf-w2LDvlw9F7p6FqIL-2" target="eBf-w2LDvlw9F7p6FqIL-12">
          <mxGeometry relative="1" as="geometry" />
        </mxCell>
        <mxCell id="eBf-w2LDvlw9F7p6FqIL-38" value="" style="group" vertex="1" connectable="0" parent="1">
          <mxGeometry x="90" y="330" width="670" height="220" as="geometry" />
        </mxCell>
        <mxCell id="eBf-w2LDvlw9F7p6FqIL-5" value="&lt;b&gt;&lt;font style=&quot;font-size: 15px;&quot;&gt;布尔值&lt;/font&gt;&lt;/b&gt;" style="rounded=1;whiteSpace=wrap;html=1;fillColor=#dae8fc;strokeColor=#6c8ebf;" vertex="1" parent="eBf-w2LDvlw9F7p6FqIL-38">
          <mxGeometry x="264" width="120" height="60" as="geometry" />
        </mxCell>
        <mxCell id="eBf-w2LDvlw9F7p6FqIL-20" value="false" style="rounded=1;whiteSpace=wrap;html=1;fillColor=#dae8fc;strokeColor=#6c8ebf;fontSize=15;fontStyle=1" vertex="1" parent="eBf-w2LDvlw9F7p6FqIL-38">
          <mxGeometry x="130" y="90" width="94.8529411764706" height="50" as="geometry" />
        </mxCell>
        <mxCell id="eBf-w2LDvlw9F7p6FqIL-29" style="edgeStyle=orthogonalEdgeStyle;rounded=0;orthogonalLoop=1;jettySize=auto;html=1;exitX=0.5;exitY=1;exitDx=0;exitDy=0;entryX=0.5;entryY=0;entryDx=0;entryDy=0;" edge="1" parent="eBf-w2LDvlw9F7p6FqIL-38" source="eBf-w2LDvlw9F7p6FqIL-5" target="eBf-w2LDvlw9F7p6FqIL-20">
          <mxGeometry relative="1" as="geometry">
            <Array as="points">
              <mxPoint x="324" y="80" />
              <mxPoint x="177" y="80" />
            </Array>
          </mxGeometry>
        </mxCell>
        <mxCell id="eBf-w2LDvlw9F7p6FqIL-21" value="true" style="rounded=1;whiteSpace=wrap;html=1;fillColor=#dae8fc;strokeColor=#6c8ebf;fontSize=15;fontStyle=1" vertex="1" parent="eBf-w2LDvlw9F7p6FqIL-38">
          <mxGeometry x="420" y="90" width="94.8529411764706" height="50" as="geometry" />
        </mxCell>
        <mxCell id="eBf-w2LDvlw9F7p6FqIL-30" style="edgeStyle=orthogonalEdgeStyle;rounded=0;orthogonalLoop=1;jettySize=auto;html=1;exitX=0.5;exitY=1;exitDx=0;exitDy=0;entryX=0.5;entryY=0;entryDx=0;entryDy=0;" edge="1" parent="eBf-w2LDvlw9F7p6FqIL-38" source="eBf-w2LDvlw9F7p6FqIL-5" target="eBf-w2LDvlw9F7p6FqIL-21">
          <mxGeometry relative="1" as="geometry">
            <Array as="points">
              <mxPoint x="324" y="80" />
              <mxPoint x="467" y="80" />
            </Array>
          </mxGeometry>
        </mxCell>
        <mxCell id="eBf-w2LDvlw9F7p6FqIL-22" value="空集合" style="rounded=1;whiteSpace=wrap;html=1;fillColor=#dae8fc;strokeColor=#6c8ebf;fontSize=13;fontStyle=1" vertex="1" parent="eBf-w2LDvlw9F7p6FqIL-38">
          <mxGeometry y="180" width="70" height="40" as="geometry" />
        </mxCell>
        <mxCell id="eBf-w2LDvlw9F7p6FqIL-31" style="edgeStyle=orthogonalEdgeStyle;rounded=0;orthogonalLoop=1;jettySize=auto;html=1;exitX=0.5;exitY=1;exitDx=0;exitDy=0;entryX=0.5;entryY=0;entryDx=0;entryDy=0;" edge="1" parent="eBf-w2LDvlw9F7p6FqIL-38" source="eBf-w2LDvlw9F7p6FqIL-20" target="eBf-w2LDvlw9F7p6FqIL-22">
          <mxGeometry relative="1" as="geometry" />
        </mxCell>
        <mxCell id="eBf-w2LDvlw9F7p6FqIL-23" value="空字典" style="rounded=1;whiteSpace=wrap;html=1;fillColor=#dae8fc;strokeColor=#6c8ebf;fontSize=13;fontStyle=1" vertex="1" parent="eBf-w2LDvlw9F7p6FqIL-38">
          <mxGeometry x="100" y="180" width="70" height="40" as="geometry" />
        </mxCell>
        <mxCell id="eBf-w2LDvlw9F7p6FqIL-32" style="edgeStyle=orthogonalEdgeStyle;rounded=0;orthogonalLoop=1;jettySize=auto;html=1;exitX=0.5;exitY=1;exitDx=0;exitDy=0;entryX=0.5;entryY=0;entryDx=0;entryDy=0;" edge="1" parent="eBf-w2LDvlw9F7p6FqIL-38" source="eBf-w2LDvlw9F7p6FqIL-20" target="eBf-w2LDvlw9F7p6FqIL-23">
          <mxGeometry relative="1" as="geometry" />
        </mxCell>
        <mxCell id="eBf-w2LDvlw9F7p6FqIL-24" value="&lt;font style=&quot;font-size: 13px;&quot;&gt;空列表&lt;/font&gt;" style="rounded=1;whiteSpace=wrap;html=1;fillColor=#dae8fc;strokeColor=#6c8ebf;fontSize=15;fontStyle=1" vertex="1" parent="eBf-w2LDvlw9F7p6FqIL-38">
          <mxGeometry x="200" y="180" width="70" height="40" as="geometry" />
        </mxCell>
        <mxCell id="eBf-w2LDvlw9F7p6FqIL-33" style="edgeStyle=orthogonalEdgeStyle;rounded=0;orthogonalLoop=1;jettySize=auto;html=1;exitX=0.5;exitY=1;exitDx=0;exitDy=0;entryX=0.5;entryY=0;entryDx=0;entryDy=0;" edge="1" parent="eBf-w2LDvlw9F7p6FqIL-38" source="eBf-w2LDvlw9F7p6FqIL-20" target="eBf-w2LDvlw9F7p6FqIL-24">
          <mxGeometry relative="1" as="geometry" />
        </mxCell>
        <mxCell id="eBf-w2LDvlw9F7p6FqIL-25" value="&lt;font style=&quot;font-size: 13px;&quot;&gt;空元组&lt;/font&gt;" style="rounded=1;whiteSpace=wrap;html=1;fillColor=#dae8fc;strokeColor=#6c8ebf;fontSize=15;fontStyle=1" vertex="1" parent="eBf-w2LDvlw9F7p6FqIL-38">
          <mxGeometry x="300" y="180" width="70" height="40" as="geometry" />
        </mxCell>
        <mxCell id="eBf-w2LDvlw9F7p6FqIL-34" style="edgeStyle=orthogonalEdgeStyle;rounded=0;orthogonalLoop=1;jettySize=auto;html=1;exitX=0.5;exitY=1;exitDx=0;exitDy=0;entryX=0.5;entryY=0;entryDx=0;entryDy=0;" edge="1" parent="eBf-w2LDvlw9F7p6FqIL-38" source="eBf-w2LDvlw9F7p6FqIL-20" target="eBf-w2LDvlw9F7p6FqIL-25">
          <mxGeometry relative="1" as="geometry" />
        </mxCell>
        <mxCell id="eBf-w2LDvlw9F7p6FqIL-26" value="&lt;font style=&quot;font-size: 13px;&quot;&gt;空字符串&lt;/font&gt;" style="rounded=1;whiteSpace=wrap;html=1;fillColor=#dae8fc;strokeColor=#6c8ebf;fontSize=15;fontStyle=1" vertex="1" parent="eBf-w2LDvlw9F7p6FqIL-38">
          <mxGeometry x="400" y="180" width="70" height="40" as="geometry" />
        </mxCell>
        <mxCell id="eBf-w2LDvlw9F7p6FqIL-35" style="edgeStyle=orthogonalEdgeStyle;rounded=0;orthogonalLoop=1;jettySize=auto;html=1;exitX=0.5;exitY=1;exitDx=0;exitDy=0;entryX=0.5;entryY=0;entryDx=0;entryDy=0;" edge="1" parent="eBf-w2LDvlw9F7p6FqIL-38" source="eBf-w2LDvlw9F7p6FqIL-20" target="eBf-w2LDvlw9F7p6FqIL-26">
          <mxGeometry relative="1" as="geometry" />
        </mxCell>
        <mxCell id="eBf-w2LDvlw9F7p6FqIL-27" value="&lt;font style=&quot;font-size: 13px;&quot;&gt;None&lt;/font&gt;" style="rounded=1;whiteSpace=wrap;html=1;fillColor=#dae8fc;strokeColor=#6c8ebf;fontSize=15;fontStyle=1" vertex="1" parent="eBf-w2LDvlw9F7p6FqIL-38">
          <mxGeometry x="500" y="180" width="70" height="40" as="geometry" />
        </mxCell>
        <mxCell id="eBf-w2LDvlw9F7p6FqIL-36" style="edgeStyle=orthogonalEdgeStyle;rounded=0;orthogonalLoop=1;jettySize=auto;html=1;exitX=0.5;exitY=1;exitDx=0;exitDy=0;entryX=0.5;entryY=0;entryDx=0;entryDy=0;" edge="1" parent="eBf-w2LDvlw9F7p6FqIL-38" source="eBf-w2LDvlw9F7p6FqIL-20" target="eBf-w2LDvlw9F7p6FqIL-27">
          <mxGeometry relative="1" as="geometry" />
        </mxCell>
        <mxCell id="eBf-w2LDvlw9F7p6FqIL-28" value="0" style="rounded=1;whiteSpace=wrap;html=1;fillColor=#dae8fc;strokeColor=#6c8ebf;fontSize=15;fontStyle=1" vertex="1" parent="eBf-w2LDvlw9F7p6FqIL-38">
          <mxGeometry x="600" y="180" width="70" height="40" as="geometry" />
        </mxCell>
        <mxCell id="eBf-w2LDvlw9F7p6FqIL-37" style="edgeStyle=orthogonalEdgeStyle;rounded=0;orthogonalLoop=1;jettySize=auto;html=1;exitX=0.5;exitY=1;exitDx=0;exitDy=0;entryX=0.5;entryY=0;entryDx=0;entryDy=0;" edge="1" parent="eBf-w2LDvlw9F7p6FqIL-38" source="eBf-w2LDvlw9F7p6FqIL-20" target="eBf-w2LDvlw9F7p6FqIL-28">
          <mxGeometry relative="1" as="geometry" />
        </mxCell>
        <mxCell id="eBf-w2LDvlw9F7p6FqIL-71" value="" style="group" vertex="1" connectable="0" parent="1">
          <mxGeometry x="20" y="620" width="780" height="325" as="geometry" />
        </mxCell>
        <mxCell id="eBf-w2LDvlw9F7p6FqIL-4" value="&lt;b&gt;&lt;font style=&quot;font-size: 15px;&quot;&gt;字符串&lt;/font&gt;&lt;/b&gt;" style="rounded=1;whiteSpace=wrap;html=1;fillColor=#557357;strokeColor=#82b366;gradientColor=none;fontColor=#FFFFFF;" vertex="1" parent="eBf-w2LDvlw9F7p6FqIL-71">
          <mxGeometry x="333" width="120" height="60" as="geometry" />
        </mxCell>
        <mxCell id="eBf-w2LDvlw9F7p6FqIL-39" value="&lt;b&gt;&lt;font style=&quot;font-size: 14px;&quot;&gt;表现形式&lt;/font&gt;&lt;/b&gt;" style="rounded=1;whiteSpace=wrap;html=1;fillColor=#557357;strokeColor=#82b366;gradientColor=none;fontColor=#FFFFFF;" vertex="1" parent="eBf-w2LDvlw9F7p6FqIL-71">
          <mxGeometry x="160" y="90" width="110" height="50" as="geometry" />
        </mxCell>
        <mxCell id="eBf-w2LDvlw9F7p6FqIL-57" style="edgeStyle=orthogonalEdgeStyle;rounded=0;orthogonalLoop=1;jettySize=auto;html=1;exitX=0.5;exitY=1;exitDx=0;exitDy=0;entryX=0.5;entryY=0;entryDx=0;entryDy=0;" edge="1" parent="eBf-w2LDvlw9F7p6FqIL-71" source="eBf-w2LDvlw9F7p6FqIL-4" target="eBf-w2LDvlw9F7p6FqIL-39">
          <mxGeometry relative="1" as="geometry">
            <Array as="points">
              <mxPoint x="393" y="70" />
              <mxPoint x="215" y="70" />
            </Array>
          </mxGeometry>
        </mxCell>
        <mxCell id="eBf-w2LDvlw9F7p6FqIL-40" value="&lt;b&gt;&lt;font style=&quot;font-size: 14px;&quot;&gt;格式化&lt;/font&gt;&lt;/b&gt;" style="rounded=1;whiteSpace=wrap;html=1;fillColor=#557357;strokeColor=#82b366;gradientColor=none;fontColor=#FFFFFF;" vertex="1" parent="eBf-w2LDvlw9F7p6FqIL-71">
          <mxGeometry x="585" y="90" width="110" height="50" as="geometry" />
        </mxCell>
        <mxCell id="eBf-w2LDvlw9F7p6FqIL-58" style="edgeStyle=orthogonalEdgeStyle;rounded=0;orthogonalLoop=1;jettySize=auto;html=1;exitX=0.5;exitY=1;exitDx=0;exitDy=0;entryX=0.5;entryY=0;entryDx=0;entryDy=0;" edge="1" parent="eBf-w2LDvlw9F7p6FqIL-71" source="eBf-w2LDvlw9F7p6FqIL-4" target="eBf-w2LDvlw9F7p6FqIL-40">
          <mxGeometry relative="1" as="geometry">
            <Array as="points">
              <mxPoint x="393" y="70" />
              <mxPoint x="640" y="70" />
            </Array>
          </mxGeometry>
        </mxCell>
        <mxCell id="eBf-w2LDvlw9F7p6FqIL-42" value="&#39;&#39; &quot;&quot;&lt;br&gt;&lt;font style=&quot;font-size: 11px;&quot;&gt;单双引号&lt;/font&gt;" style="rounded=1;whiteSpace=wrap;html=1;fillColor=#d5e8d4;strokeColor=#82b366;" vertex="1" parent="eBf-w2LDvlw9F7p6FqIL-71">
          <mxGeometry x="40" y="90" width="63.26923076923077" height="50" as="geometry" />
        </mxCell>
        <mxCell id="eBf-w2LDvlw9F7p6FqIL-51" style="edgeStyle=orthogonalEdgeStyle;rounded=0;orthogonalLoop=1;jettySize=auto;html=1;exitX=0;exitY=0.5;exitDx=0;exitDy=0;entryX=1;entryY=0.5;entryDx=0;entryDy=0;" edge="1" parent="eBf-w2LDvlw9F7p6FqIL-71" source="eBf-w2LDvlw9F7p6FqIL-39" target="eBf-w2LDvlw9F7p6FqIL-42">
          <mxGeometry relative="1" as="geometry" />
        </mxCell>
        <mxCell id="eBf-w2LDvlw9F7p6FqIL-43" value="r前缀&amp;nbsp; (r&quot;&quot;)&lt;br&gt;字符串不做特殊处理" style="rounded=1;whiteSpace=wrap;html=1;fillColor=#d5e8d4;strokeColor=#82b366;" vertex="1" parent="eBf-w2LDvlw9F7p6FqIL-71">
          <mxGeometry y="180" width="120" height="50" as="geometry" />
        </mxCell>
        <mxCell id="eBf-w2LDvlw9F7p6FqIL-53" style="edgeStyle=orthogonalEdgeStyle;rounded=0;orthogonalLoop=1;jettySize=auto;html=1;exitX=0.5;exitY=1;exitDx=0;exitDy=0;entryX=0.5;entryY=0;entryDx=0;entryDy=0;" edge="1" parent="eBf-w2LDvlw9F7p6FqIL-71" source="eBf-w2LDvlw9F7p6FqIL-39" target="eBf-w2LDvlw9F7p6FqIL-43">
          <mxGeometry relative="1" as="geometry" />
        </mxCell>
        <mxCell id="eBf-w2LDvlw9F7p6FqIL-46" value="转义字符" style="rounded=1;whiteSpace=wrap;html=1;fillColor=#d5e8d4;strokeColor=#82b366;" vertex="1" parent="eBf-w2LDvlw9F7p6FqIL-71">
          <mxGeometry x="290.0046153846154" y="180" width="63.26923076923077" height="50" as="geometry" />
        </mxCell>
        <mxCell id="eBf-w2LDvlw9F7p6FqIL-55" style="edgeStyle=orthogonalEdgeStyle;rounded=0;orthogonalLoop=1;jettySize=auto;html=1;exitX=0.5;exitY=1;exitDx=0;exitDy=0;entryX=0.5;entryY=0;entryDx=0;entryDy=0;" edge="1" parent="eBf-w2LDvlw9F7p6FqIL-71" source="eBf-w2LDvlw9F7p6FqIL-39" target="eBf-w2LDvlw9F7p6FqIL-46">
          <mxGeometry relative="1" as="geometry" />
        </mxCell>
        <mxCell id="eBf-w2LDvlw9F7p6FqIL-47" value="&lt;p style=&quot;line-height: 120%; font-size: 10px;&quot;&gt;&lt;font style=&quot;font-size: 10px;&quot;&gt;&#39;&#39;&#39; &quot;&quot;&quot;&lt;br&gt;&lt;font style=&quot;font-size: 10px;&quot;&gt;单双三引号&lt;/font&gt;&lt;/font&gt;&lt;span style=&quot;font-size: 9px; background-color: initial;&quot;&gt;（可跨行）&lt;/span&gt;&lt;/p&gt;" style="rounded=1;html=1;fillColor=#d5e8d4;strokeColor=#82b366;spacingTop=2;whiteSpace=wrap;spacingBottom=0;" vertex="1" parent="eBf-w2LDvlw9F7p6FqIL-71">
          <mxGeometry x="330.0007692307692" y="90" width="63.26923076923077" height="50" as="geometry" />
        </mxCell>
        <mxCell id="eBf-w2LDvlw9F7p6FqIL-52" style="edgeStyle=orthogonalEdgeStyle;rounded=0;orthogonalLoop=1;jettySize=auto;html=1;exitX=1;exitY=0.5;exitDx=0;exitDy=0;entryX=0;entryY=0.5;entryDx=0;entryDy=0;" edge="1" parent="eBf-w2LDvlw9F7p6FqIL-71" source="eBf-w2LDvlw9F7p6FqIL-39" target="eBf-w2LDvlw9F7p6FqIL-47">
          <mxGeometry relative="1" as="geometry" />
        </mxCell>
        <mxCell id="eBf-w2LDvlw9F7p6FqIL-49" value="f前缀&amp;nbsp; (f&quot;&quot;)&lt;br&gt;格式化字符串" style="rounded=1;whiteSpace=wrap;html=1;fillColor=#d5e8d4;strokeColor=#82b366;" vertex="1" parent="eBf-w2LDvlw9F7p6FqIL-71">
          <mxGeometry x="144" y="180" width="120" height="50" as="geometry" />
        </mxCell>
        <mxCell id="eBf-w2LDvlw9F7p6FqIL-54" style="edgeStyle=orthogonalEdgeStyle;rounded=0;orthogonalLoop=1;jettySize=auto;html=1;exitX=0.5;exitY=1;exitDx=0;exitDy=0;entryX=0.5;entryY=0;entryDx=0;entryDy=0;" edge="1" parent="eBf-w2LDvlw9F7p6FqIL-71" source="eBf-w2LDvlw9F7p6FqIL-39" target="eBf-w2LDvlw9F7p6FqIL-49">
          <mxGeometry relative="1" as="geometry" />
        </mxCell>
        <mxCell id="eBf-w2LDvlw9F7p6FqIL-50" value="续航 \" style="rounded=1;whiteSpace=wrap;html=1;fillColor=#d5e8d4;strokeColor=#82b366;" vertex="1" parent="eBf-w2LDvlw9F7p6FqIL-71">
          <mxGeometry x="380.0046153846154" y="180" width="63.26923076923077" height="50" as="geometry" />
        </mxCell>
        <mxCell id="eBf-w2LDvlw9F7p6FqIL-56" style="edgeStyle=orthogonalEdgeStyle;rounded=0;orthogonalLoop=1;jettySize=auto;html=1;exitX=0.5;exitY=1;exitDx=0;exitDy=0;entryX=0.5;entryY=0;entryDx=0;entryDy=0;" edge="1" parent="eBf-w2LDvlw9F7p6FqIL-71" source="eBf-w2LDvlw9F7p6FqIL-39" target="eBf-w2LDvlw9F7p6FqIL-50">
          <mxGeometry relative="1" as="geometry" />
        </mxCell>
        <mxCell id="eBf-w2LDvlw9F7p6FqIL-65" style="edgeStyle=orthogonalEdgeStyle;rounded=0;orthogonalLoop=1;jettySize=auto;html=1;exitX=0.5;exitY=1;exitDx=0;exitDy=0;entryX=0.5;entryY=0;entryDx=0;entryDy=0;" edge="1" parent="eBf-w2LDvlw9F7p6FqIL-71" source="eBf-w2LDvlw9F7p6FqIL-59">
          <mxGeometry relative="1" as="geometry">
            <mxPoint x="195" y="280" as="targetPoint" />
          </mxGeometry>
        </mxCell>
        <mxCell id="eBf-w2LDvlw9F7p6FqIL-59" value="&lt;b&gt;方式1&lt;/b&gt;" style="rounded=1;whiteSpace=wrap;html=1;fillColor=#557357;strokeColor=#82b366;fontColor=#FFFFFF;gradientColor=none;" vertex="1" parent="eBf-w2LDvlw9F7p6FqIL-71">
          <mxGeometry x="500" y="180" width="80" height="50" as="geometry" />
        </mxCell>
        <mxCell id="eBf-w2LDvlw9F7p6FqIL-66" style="edgeStyle=orthogonalEdgeStyle;rounded=0;orthogonalLoop=1;jettySize=auto;html=1;exitX=0.5;exitY=1;exitDx=0;exitDy=0;entryX=0.5;entryY=0;entryDx=0;entryDy=0;" edge="1" parent="eBf-w2LDvlw9F7p6FqIL-71" source="eBf-w2LDvlw9F7p6FqIL-60">
          <mxGeometry relative="1" as="geometry">
            <mxPoint x="419.5" y="280" as="targetPoint" />
          </mxGeometry>
        </mxCell>
        <mxCell id="eBf-w2LDvlw9F7p6FqIL-60" value="&lt;b&gt;方式2&lt;/b&gt;" style="rounded=1;whiteSpace=wrap;html=1;fillColor=#557357;strokeColor=#82b366;fontColor=#FFFFFF;gradientColor=none;" vertex="1" parent="eBf-w2LDvlw9F7p6FqIL-71">
          <mxGeometry x="600" y="180" width="80" height="50" as="geometry" />
        </mxCell>
        <mxCell id="eBf-w2LDvlw9F7p6FqIL-67" style="edgeStyle=orthogonalEdgeStyle;rounded=0;orthogonalLoop=1;jettySize=auto;html=1;exitX=0.5;exitY=1;exitDx=0;exitDy=0;entryX=0.5;entryY=0;entryDx=0;entryDy=0;" edge="1" parent="eBf-w2LDvlw9F7p6FqIL-71" source="eBf-w2LDvlw9F7p6FqIL-61">
          <mxGeometry relative="1" as="geometry">
            <mxPoint x="665" y="280" as="targetPoint" />
          </mxGeometry>
        </mxCell>
        <mxCell id="eBf-w2LDvlw9F7p6FqIL-61" value="&lt;b&gt;方式3&lt;/b&gt;" style="rounded=1;whiteSpace=wrap;html=1;fillColor=#557357;strokeColor=#82b366;fontColor=#FFFFFF;gradientColor=none;" vertex="1" parent="eBf-w2LDvlw9F7p6FqIL-71">
          <mxGeometry x="700" y="180" width="80" height="50" as="geometry" />
        </mxCell>
        <mxCell id="eBf-w2LDvlw9F7p6FqIL-68" value="&lt;div style=&quot;color: rgb(204, 204, 204); background-color: rgb(31, 31, 31); font-family: Consolas, &amp;quot;Courier New&amp;quot;, monospace; font-size: 14px; line-height: 19px;&quot;&gt;print&lt;span style=&quot;color: #d4d4d4;&quot;&gt;(&lt;/span&gt;&lt;span style=&quot;color: #ce9178;&quot;&gt;&quot;&lt;/span&gt;&lt;span style=&quot;color: #569cd6;&quot;&gt;{}&lt;/span&gt;&lt;span style=&quot;color: #ce9178;&quot;&gt;,&lt;/span&gt;&lt;span style=&quot;color: #569cd6;&quot;&gt;{}&lt;/span&gt;&lt;span style=&quot;color: #ce9178;&quot;&gt;,&lt;/span&gt;&lt;span style=&quot;color: #569cd6;&quot;&gt;{}&lt;/span&gt;&lt;span style=&quot;color: #ce9178;&quot;&gt;,&lt;/span&gt;&lt;span style=&quot;color: #569cd6;&quot;&gt;{}&lt;/span&gt;&lt;span style=&quot;color: #ce9178;&quot;&gt;&quot;&lt;/span&gt;&lt;span style=&quot;color: #d4d4d4;&quot;&gt;.format(a,b,&lt;/span&gt;&lt;span style=&quot;color: #b5cea8;&quot;&gt;100&lt;/span&gt;&lt;span style=&quot;color: #d4d4d4;&quot;&gt;,a+b))&lt;/span&gt;&lt;/div&gt;" style="rounded=0;whiteSpace=wrap;html=1;" vertex="1" parent="eBf-w2LDvlw9F7p6FqIL-71">
          <mxGeometry x="90" y="285" width="214" height="40" as="geometry" />
        </mxCell>
        <mxCell id="eBf-w2LDvlw9F7p6FqIL-69" value="&lt;div style=&quot;color: rgb(204, 204, 204); background-color: rgb(31, 31, 31); font-family: Consolas, &amp;quot;Courier New&amp;quot;, monospace; font-size: 14px; line-height: 19px;&quot;&gt;&lt;div style=&quot;line-height: 19px;&quot;&gt;print&lt;span style=&quot;color: #d4d4d4;&quot;&gt;(&lt;/span&gt;&lt;span style=&quot;color: #569cd6;&quot;&gt;f&lt;/span&gt;&lt;span style=&quot;color: #ce9178;&quot;&gt;&quot;&lt;/span&gt;&lt;span style=&quot;color: #569cd6;&quot;&gt;{&lt;/span&gt;&lt;span style=&quot;color: #d4d4d4;&quot;&gt;a&lt;/span&gt;&lt;span style=&quot;color: #569cd6;&quot;&gt;}&lt;/span&gt;&lt;span style=&quot;color: #ce9178;&quot;&gt;+&lt;/span&gt;&lt;span style=&quot;color: #569cd6;&quot;&gt;{&lt;/span&gt;&lt;span style=&quot;color: #d4d4d4;&quot;&gt;b&lt;/span&gt;&lt;span style=&quot;color: #569cd6;&quot;&gt;}&lt;/span&gt;&lt;span style=&quot;color: #ce9178;&quot;&gt;=&lt;/span&gt;&lt;span style=&quot;color: #569cd6;&quot;&gt;{&lt;/span&gt;&lt;span style=&quot;color: #d4d4d4;&quot;&gt;a+b&lt;/span&gt;&lt;span style=&quot;color: #569cd6;&quot;&gt;}&lt;/span&gt;&lt;span style=&quot;color: #ce9178;&quot;&gt;&quot;&lt;/span&gt;&lt;span style=&quot;color: #d4d4d4;&quot;&gt;)&lt;/span&gt;&lt;/div&gt;&lt;/div&gt;" style="rounded=0;whiteSpace=wrap;html=1;" vertex="1" parent="eBf-w2LDvlw9F7p6FqIL-71">
          <mxGeometry x="340" y="285" width="167" height="40" as="geometry" />
        </mxCell>
        <mxCell id="eBf-w2LDvlw9F7p6FqIL-70" value="&lt;div style=&quot;color: rgb(204, 204, 204); background-color: rgb(31, 31, 31); font-family: Consolas, &amp;quot;Courier New&amp;quot;, monospace; font-size: 14px; line-height: 19px;&quot;&gt;&lt;div style=&quot;line-height: 19px;&quot;&gt;print(&lt;span style=&quot;border-color: var(--border-color); color: rgb(86, 156, 214);&quot;&gt;f&lt;/span&gt;&lt;span style=&quot;border-color: var(--border-color); color: rgb(206, 145, 120);&quot;&gt;&quot;&lt;/span&gt;&lt;span style=&quot;border-color: var(--border-color); color: rgb(86, 156, 214);&quot;&gt;{&lt;/span&gt;&lt;span style=&quot;border-color: var(--border-color); color: rgb(212, 212, 212);&quot;&gt;a&lt;/span&gt;&lt;span style=&quot;border-color: var(--border-color); color: rgb(86, 156, 214);&quot;&gt;}&lt;/span&gt;&lt;span style=&quot;border-color: var(--border-color); color: rgb(206, 145, 120);&quot;&gt;+&lt;/span&gt;&lt;span style=&quot;border-color: var(--border-color); color: rgb(86, 156, 214);&quot;&gt;{&lt;/span&gt;&lt;span style=&quot;border-color: var(--border-color); color: rgb(212, 212, 212);&quot;&gt;b&lt;/span&gt;&lt;span style=&quot;border-color: var(--border-color); color: rgb(86, 156, 214);&quot;&gt;}&lt;/span&gt;&lt;span style=&quot;border-color: var(--border-color); color: rgb(206, 145, 120);&quot;&gt;=&lt;/span&gt;&lt;span style=&quot;border-color: var(--border-color); color: rgb(86, 156, 214);&quot;&gt;{&lt;/span&gt;&lt;span style=&quot;border-color: var(--border-color); color: rgb(212, 212, 212);&quot;&gt;a+b&lt;/span&gt;&lt;span style=&quot;border-color: var(--border-color); color: rgb(86, 156, 214);&quot;&gt;}&lt;/span&gt;&lt;span style=&quot;border-color: var(--border-color); color: rgb(206, 145, 120);&quot;&gt;&quot;&lt;/span&gt;&lt;span style=&quot;border-color: var(--border-color); color: rgb(212, 212, 212);&quot;&gt;)&lt;/span&gt;&lt;br&gt;&lt;/div&gt;&lt;/div&gt;" style="rounded=0;whiteSpace=wrap;html=1;" vertex="1" parent="eBf-w2LDvlw9F7p6FqIL-71">
          <mxGeometry x="580" y="285" width="170" height="40" as="geometry" />
        </mxCell>
      </root>
    </mxGraphModel>
  </diagram>
</mxfile>
